HIERARCHY
ROOT Hips
{
    OFFSET 0.0 0.0 0.0
    CHANNELS 6 Xposition Yposition Zposition Zrotation Xrotation Yrotation
    JOINT LeftHipJoint
    {
        OFFSET 0.1 0.0 0.0
        CHANNELS 3 Zrotation Xrotation Yrotation
        JOINT LeftUpLeg
        {
            OFFSET 118.31707268607184 0.0 0.0
            CHANNELS 3 Zrotation Xrotation Yrotation
            JOINT LeftLeg
            {
                OFFSET 0.0 0.0 -402.3489337676623
                CHANNELS 3 Zrotation Xrotation Yrotation
                JOINT LeftFoot
                {
                    OFFSET 0.0 0.0 -399.86654119079594
                    CHANNELS 3 Zrotation Xrotation Yrotation
                    End Site
                    {
                        OFFSET 0.0 -0.1 0.0
                    }
                }
            }
        }
    }
    JOINT LowerBack
    {
        OFFSET 0.0 0.0 0.1
        CHANNELS 3 Zrotation Xrotation Yrotation
        JOINT Spine
        {
            OFFSET 0.0 0.0 219.35238638858002
            CHANNELS 3 Zrotation Xrotation Yrotation
            JOINT Spine1
            {
                OFFSET 0.0 0.0 251.5619903774828
                CHANNELS 3 Zrotation Xrotation Yrotation
                JOINT LeftShoulder
                {
                    OFFSET 0.1 0.0 0.0
                    CHANNELS 3 Zrotation Xrotation Yrotation
                    JOINT LeftArm
                    {
                        OFFSET 141.91542422619278 0.0 0.0
                        CHANNELS 3 Zrotation Xrotation Yrotation
                        JOINT LeftForeArm
                        {
                            OFFSET 251.7435199160994 0.0 0.0
                            CHANNELS 3 Zrotation Xrotation Yrotation
                            JOINT LeftHand
                            {
                                OFFSET 247.69490881713932 0.0 0.0
                                CHANNELS 3 Zrotation Xrotation Yrotation
                                End Site
                                {
                                    OFFSET 0.1 0.0 0.0
                                }
                            }
                        }
                    }
                }
                JOINT Neck
                {
                    OFFSET 0.0 0.0 0.1
                    CHANNELS 3 Zrotation Xrotation Yrotation
                    JOINT Neck1
                    {
                        OFFSET 0.0 0.0 107.30046745440914
                        CHANNELS 3 Zrotation Xrotation Yrotation
                        End Site
                        {
                            OFFSET 0.0 0.0 116.79009760593347
                        }
                    }
                }
                JOINT RightShoulder
                {
                    OFFSET -0.1 0.0 0.0
                    CHANNELS 3 Zrotation Xrotation Yrotation
                    JOINT RightArm
                    {
                        OFFSET -141.91542422619278 0.0 0.0
                        CHANNELS 3 Zrotation Xrotation Yrotation
                        JOINT RightForeArm
                        {
                            OFFSET -251.7435199160994 0.0 0.0
                            CHANNELS 3 Zrotation Xrotation Yrotation
                            JOINT RightHand
                            {
                                OFFSET -247.69490881713932 0.0 0.0
                                CHANNELS 3 Zrotation Xrotation Yrotation
                                End Site
                                {
                                    OFFSET -0.1 0.0 0.0
                                }
                            }
                        }
                    }
                }
            }
        }
    }
    JOINT RightHipJoint
    {
        OFFSET -0.1 0.0 0.0
        CHANNELS 3 Zrotation Xrotation Yrotation
        JOINT RightUpLeg
        {
            OFFSET -118.31707268607184 0.0 0.0
            CHANNELS 3 Zrotation Xrotation Yrotation
            JOINT RightLeg
            {
                OFFSET 0.0 0.0 -402.3489337676623
                CHANNELS 3 Zrotation Xrotation Yrotation
                JOINT RightFoot
                {
                    OFFSET 0.0 0.0 -399.86654119079594
                    CHANNELS 3 Zrotation Xrotation Yrotation
                    End Site
                    {
                        OFFSET 0.0 -0.1 0.0
                    }
                }
            }
        }
    }
}
MOTION
Frames: 8
Frame Time: 0.03333333333333333
0.0 0.0 809.8677378150152 27.46600873369591 2.3216788525523664 5.639189323404833 0.0 0.0 9.93923337957349e-17 -0.22759421386643539 -21.835195272017597 -2.6750837723892875 -1.2280833350198737 30.793320882259565 1.6687326156372035 0.0 0.0 3.975693351829396e-16 0.0 0.0 9.93923337957349e-17 -0.06121668915307521 -6.091523685949805 0.10468638104937564 2.4596142264144083 1.0022272368076647e-15 3.7614564175988533e-16 0.0 0.0 0.0 -31.734994924944424 12.136843235815457 76.18838237284821 -28.77629362569471 -2.7258993212587133e-15 4.226025685536e-15 0.0 0.0 -1.1927080055488188e-15 0.0 0.0 0.0 -12.38333389324513 -3.0365737901029726 -5.565875702091847 0.0 0.0 0.0 14.237710588294187 -51.69327100597541 -30.25798128919122 106.26516692326204 0.0 0.0 0.0 0.0 0.0 0.0 0.0 9.93923337957349e-17 -0.13546193652817326 -13.11087872044443 -3.705481488554225 -1.3533378866384629 23.466013817525393 -0.9490493819984446 -5.517382872562698e-33 1.5902773407317582e-15 3.9756933518293955e-16
0.0 0.0 809.8677378150152 27.46740458829776 2.269195128477756 5.608474687001576 0.0 0.0 3.2302508483613845e-16 -0.27749193675090106 -21.98651986112164 -2.6997157204844053 -1.1824313046207737 31.155875300278808 1.8077126822374783 0.0 0.0 -7.951386703658792e-16 0.0 0.0 3.2302508483613845e-16 -0.07549657967392909 -6.217633517376682 0.08102557551680113 2.5220211957935157 1.3123968553252332e-17 5.962095756313157e-16 0.0 0.0 0.0 -31.761570393032315 12.304554987571475 76.24492092714367 -28.72310027845858 -2.021567183791903e-15 7.895477154812307e-15 0.0 0.0 -1.1927080055488188e-15 0.0 0.0 0.0 -12.299490458277145 -3.026739142505856 -5.517204411620089 0.0 0.0 0.0 14.759071987672526 -51.74049210573675 -29.62650791772326 105.67997118058291 -5.0694966775099154e-15 -3.842384124971617e-15 0.0 0.0 0.0 0.0 0.0 3.2302508483613845e-16 -0.1671351711840926 -13.410254439778063 -3.632286078905232 -1.3117746076233918 24.189063218514317 -0.9280605284005747 0.0 0.0 0.0
0.0 0.0 809.8677378150152 27.447946277377024 2.26991316596632 5.52337213702759 0.0 0.0 2.7332891793827095e-16 -0.2801907147794616 -21.95724120549691 -2.6285550412041245 -1.1394493233855407 31.269526160848663 1.9498969966036688 0.0 0.0 -3.975693351829396e-16 0.0 0.0 2.7332891793827095e-16 -0.07818257622845222 -6.36601059733334 0.1582584979302255 2.6372067531691696 1.850087655596078e-16 -6.0077050307136555e-16 0.0 0.0 0.0 -31.382595110163514 12.439719880723427 76.2511709450569 -28.617020970803217 3.3095616038519157e-15 -6.5412284721421166e-15 0.0 0.0 3.975693351829396e-16 0.0 0.0 0.0 -12.317217486893707 -2.9437498622269396 -5.512406735074743 0.0 0.0 0.0 15.442789554104653 -51.850825778146515 -29.005246385135194 104.90044379772624 7.753562029511617e-15 -1.0086482298749533e-14 0.0 0.0 0.0 0.0 0.0 2.7332891793827095e-16 -0.17004389859105962 -13.488679839891601 -3.516183005586338 -1.2730950576073345 24.483903527889538 -1.0590746218416316 0.0 0.0 3.975693351829396e-16
0.0 0.0 809.8677378150152 27.3185285953101 2.2339549014444473 5.45939457705313 0.0 0.0 -4.2241741863187335e-16 -0.2840139482964281 -21.93046557047062 -2.5917560456167124 -1.123763492268374 31.577050121776026 2.032893938222367 -6.896728590703373e-34 -1.987846675914698e-16 -3.975693351829396e-16 0.0 0.0 -4.2241741863187335e-16 -0.07987216878814421 -6.407602112298327 0.1287243812863593 2.7600906939024834 2.1308960129046861e-16 5.913934921153432e-16 0.0 0.0 0.0 -31.251361625925497 12.52312059390489 76.28970408573556 -28.658640779859784 3.4930710535148845e-15 -1.3674622629864404e-14 0.0 0.0 -3.975693351829397e-16 0.0 0.0 0.0 -12.14347014555771 -2.9511892592821254 -5.609446588029358 0.0 0.0 0.0 16.39725809386557 -51.945332095317454 -28.261404068837315 104.25080623884891 -3.905309489916214e-15 5.021182143189822e-15 0.0 0.0 0.0 0.0 0.0 -4.2241741863187335e-16 -0.1750698211148241 -13.67865347853931 -3.4091118400365117 -1.2358347853956522 24.78069574302839 -1.2576184165228756 0.0 0.0 0.0
0.0 0.0 809.8677378150152 27.329895283370224 2.2380229084830536 5.381083418785791 0.0 0.0 -3.975693351829396e-16 -0.26451307479647973 -22.16964577105822 -2.499418274554012 -1.1160409674558274 31.869516621997736 2.1188834271551653 0.0 0.0 3.975693351829396e-16 0.0 0.0 -3.975693351829396e-16 -0.0730518169256857 -6.36186254303018 0.18260911174398822 2.9035986071981887 -1.1822523343972959e-15 4.276601227495855e-16 0.0 0.0 3.975693351829396e-16 -30.893583837189585 12.739559698271476 76.26478932869935 -28.71145900717967 6.162483889620998e-15 1.5771824996745383e-15 0.0 0.0 -4.7708320221952736e-15 0.0 0.0 3.975693351829396e-16 -12.135182366631843 -3.1279700084604105 -5.611464326792201 0.0 0.0 3.975693351829396e-16 17.07103030387978 -52.105461533978826 -27.763214177838375 104.07700517479108 5.0152531856605635e-15 3.9129206241424754e-15 0.0 0.0 0.0 0.0 0.0 -3.975693351829396e-16 -0.1633554916443521 -13.826742498490244 -3.384192493105304 -1.2610257167803383 24.95914819054123 -1.235707425575403 0.0 0.0 0.0
0.0 0.0 809.8677378150152 27.35510865625803 2.2105420330313827 5.32751531409161 0.0 0.0 2.7332891793827095e-16 -0.26154472614140495 -22.108008732632243 -2.4679695786591185 -1.1060852105475598 32.00804710997477 2.1473351978322985 0.0 0.0 0.0 0.0 0.0 2.7332891793827095e-16 -0.07348630148431033 -6.4500579644031975 0.1989028582478233 2.9394625429545482 1.83423483857337e-16 -6.012564064225416e-16 0.0 0.0 0.0 -30.882016548308883 12.819862962880574 76.26736395396375 -28.934401761353037 1.265338200756041e-15 -2.4000918684103775e-14 0.0 0.0 2.3854160110976376e-15 0.0 0.0 0.0 -12.116256657250752 -2.9399214924811887 -5.489867776424183 0.0 0.0 0.0 17.528154285002415 -51.99934821169794 -27.401107852482312 103.66468287261459 -6.071341535967909e-15 -1.28630235010755e-14 1.5902773407317584e-15 7.951386703658792e-16 -1.1034765745125397e-32 0.0 0.0 2.7332891793827095e-16 -0.16277069230686123 -13.880644522794809 -3.3429072099287094 -1.2586056539921786 25.212634670520995 -1.2530421543956343 0.0 0.0 0.0
0.0 0.0 809.8677378150152 27.281954253414117 2.3835275301919734 5.2946246181206 0.0 0.0 2.4848083448933725e-16 -0.2762877650140387 -22.19216559036539 -2.4630962345244876 -1.0680648878631662 31.717625124793546 2.2639071045502948 0.0 0.0 -7.951386703658792e-16 0.0 0.0 2.4848083448933725e-16 -0.07786256004796871 -6.499725022497128 0.2191364638049301 2.986439057186053 3.8707420790290507e-16 -4.0779444593072615e-16 0.0 7.951386703658791e-16 0.0 -30.639596536004188 12.732451290817906 76.2652950341798 -29.136334877926075 -6.381596642524114e-15 -7.342495057194886e-16 0.0 0.0 1.987846675914698e-15 0.0 7.951386703658791e-16 0.0 -12.055745723129899 -2.9985733600463065 -5.592017281626016 0.0 7.951386703658791e-16 0.0 18.15134462888413 -52.01829881762742 -26.883415203917508 103.37814980161384 -2.8955715386451755e-15 1.3926026967523001e-14 0.0 0.0 0.0 0.0 0.0 2.4848083448933725e-16 -0.1737808428968645 -14.098220657999473 -3.352747603449088 -1.2414786856077542 25.12022983568927 -1.165678115740753 0.0 0.0 0.0
0.0 0.0 809.8677378150152 27.311254807926076 2.252537790443828 5.335894029880422 0.0 0.0 2.4848083448933725e-17 -0.31492721486146524 -22.0298229105302 -2.5359407426378584 -1.041136290448749 31.591251229372112 2.2506498817653697 0.0 -1.9878466759146977e-16 0.0 0.0 0.0 2.4848083448933725e-17 -0.08910598807753771 -6.481130890576014 0.0922760263317699 3.028558027907195 2.3023384073260516e-16 1.1870383772866003e-15 0.0 0.0 0.0 -30.605198054878898 12.674441607385203 76.31525601108576 -29.0512902429368 -5.7029107581529824e-15 -9.691538056819807e-15 1.5902773407317582e-15 -7.724336021587778e-32 -5.5659706925611536e-15 0.0 0.0 0.0 -11.898533930873759 -2.922510817245733 -5.485602838213785 0.0 0.0 0.0 18.425065102829 -51.7073775909157 -26.653878929648776 103.45543055555065 -4.99395480301633e-15 -3.9400669731044034e-15 0.0 0.0 0.0 0.0 0.0 2.4848083448933725e-17 -0.19511691937319975 -13.825377613505035 -3.407616104847748 -1.2104746802424606 24.969478844279173 -1.1556928314625705 0.0 0.0 -3.975693351829396e-16
